<svg xmlns="http://www.w3.org/2000/svg" xmlns:xlink="http://www.w3.org/1999/xlink" viewBox="0 0 177.9 90.76"><defs><style>.cls-1{fill:none;clip-rule:evenodd;}.cls-2{fill:#32368b;}.cls-3{clip-path:url(#clip-path);}.cls-4{fill:url(#linear-gradient);}.cls-5{fill:#f2595a;fill-rule:evenodd;}</style><clipPath id="clip-path" transform="translate(0.58)"><path id="SVGID" class="cls-1" d="M136.71,18.83h4.49v7.87l4.57-7.86h5.08V36.13H145.6V28.3l-4.49,7.81H136V18.82ZM120.12,36.08V18.79h.76l13.56,0V36.1H129V23.8h-3.52v12.3h-5.39Zm-11.15,0V18.77H119v5h-4.67v1.16h4.23V29.6h-4.23v1.49H119v5H109Zm-60.22-.12,5.54-17.27h6L65.78,36H60l-.8-2.79H55.31L54.5,36H48.75Zm8.52-10.51-.84,3.07h1.69ZM76.76,35.61l-.12.06-.13.06-.23.11-.12,0-.12,0-.11,0-.12,0-.12,0-.12,0-.15,0-.15.05-.15,0-.16,0-.16,0-.15,0-.15,0-.15,0h-.29l-.29,0h-.52l-.23,0-.83-.05-.78-.11-.75-.2-.73-.27-.7-.34-.66-.42-.63-.49-.6-.56-.55-.64-.48-.7-.4-.75-.34-.81-.25-.87-.18-.91-.11-1,0-1,0-1.06.11-1,.18-.94.27-.89.35-.82.42-.75.51-.7.58-.61.62-.54.63-.47.66-.39.68-.33.7-.25.71-.18.74-.11.73,0h1l.1,0h.21l.12,0,.1,0,.11,0,.11,0,.11,0,.11,0,.17,0,.17.05.17,0,.17.06.16.05.17.07.17.07.17.07.16.08.17.08.16.09.16.09.16.1.15.1.16.1.37.28v5.52h-1l-.18-.26,0-.06,0-.05,0,0,0,0,0,0,0-.05,0,0,0,0,0,0,0-.05,0-.05,0,0,0-.05,0,0-.11-.1-.1-.09-.12-.1-.12-.09L75.31,24l-.13-.09L75,23.8l-.15-.08-.14-.07-.15-.06-.15-.06-.16,0-.16,0-.18,0-.17,0H73.6l-.35,0-.33.06-.31.09-.28.13-.26.16-.25.2-.23.24-.22.28-.19.31-.18.32-.14.34-.13.36-.09.36-.07.39,0,.4,0,.42,0,.47,0,.43.07.4.11.37.13.33.15.3.19.28.21.25.24.22.24.2.26.17.26.14.28.1.28.09.3.05.29,0h.22l.23,0,.22,0,.21-.06.21-.07.2-.08.18-.09.19-.11.19-.12.18-.13.18-.13L76,30.3l.16-.14.14-.13.14-.15.3-.32h1V35l-.34.24-.12.08-.11.08-.13.08-.12.07Zm16.56-4.47h.39l.24,0,.22,0,.17-.06.14-.08.11-.08.08-.1.07-.12.06-.17,0-.23.05-.25,0-.27,0-.29,0-.29,0-.32V18.75h.76l11.63,0V36.05h-5.39V23.75h-1.61V31l0,.17,0,.16,0,.16,0,.16,0,.17,0,.17-.09.38-.11.38-.15.38-.17.36-.2.36-.23.34-.25.33-.29.34-.34.32-.41.28-.45.23L97,35.9,96.5,36l-.59.1-.63,0-.65,0-.23,0h-.93l-.07,0h-.14l-.07,0-.11,0h-.32l-.12,0H87.2L84,30.81V36h-5.4V18.72H84v5.16l3.34-5.15h6.36l-5.93,8.38,4.32,6.34V31H93l.14,0h0l0,0h.13Zm59.81-12.28h4.49v7.87l4.57-7.86h5.08V36.17H162V28.33l-4.49,7.82h-5.16V18.85ZM88.66,0a234.44,234.44,0,0,1,43.1,3.8,159.69,159.69,0,0,1,18.57,4.69q2.35.78,4.55,1.62l-.16.51-.11,1.11.11,1.1.33,1,.52.93.68.81.83.65.95.48,1.05.29,1.11.07,1.1-.15,1-.35.92-.54.8-.69.62-.76c8,4.51,12.65,9.8,12.65,15.44,0,4.11-2.46,8-6.91,11.61q-15.06.66-29.82.73c-14.61-.06-29.14-.36-43.75-.93-32.08-1.54-63.17-4.84-93.51-9.24A661.33,661.33,0,0,0,92.48,46.15c15.38,1.3,30.72,2.3,46.13,3.09q8.23.36,16.62.6a127.85,127.85,0,0,1-18.34,5.39,286.93,286.93,0,0,1-57.2,4.71C35.05,58.4,0,45.57,0,30.05,0,13.5,39.83,0,88.66,0Zm88.25,51.27,0,1.39c-.57,16.39-40.73,29.85-89.32,28.05S-.58,65.29.41,48.91l0-.26C2.36,64.39,41.46,77,88.64,77c45.85,0,83.87-11.91,87.92-27Z"/></clipPath><linearGradient id="linear-gradient" x1="53.77" y1="86.77" x2="127.46" y2="-8.58" gradientUnits="userSpaceOnUse"><stop offset="0" stop-color="#312782"/><stop offset="0.33" stop-color="#30519d"/><stop offset="0.65" stop-color="#2c9ad1"/><stop offset="1" stop-color="#369ad6"/></linearGradient></defs><g id="Layer_2" data-name="Layer 2"><g id="Header_MID_02" data-name="Header MID_02"><path class="cls-2" d="M160.71,78.33,159.1,76.6,159,78.88Zm3.12,1.37-1.37.45-1-1.05-2.49.81,0,1.39-1.34.44.39-6.18,1.33-.43Zm-12.72-2.09,1.27-.37.77,2.32a.9.9,0,0,0,.51-.36,3.39,3.39,0,0,0,.18-1,2.34,2.34,0,0,1,.43-1.34,2.77,2.77,0,0,1,1.2-.58l.18-.06.27.81-.18,0a1.51,1.51,0,0,0-.54.25.66.66,0,0,0-.2.34,5,5,0,0,0-.1.8,3.32,3.32,0,0,1-.09.55,1.31,1.31,0,0,1-.36.5,1.46,1.46,0,0,1,.84.21,7,7,0,0,1,.9.72l1.36,1.25-1.49.43L154.84,81l-.11-.09-.25-.22a1.81,1.81,0,0,0-.57-.38.92.92,0,0,0-.51,0l.8,2.39-1.27.38Zm-4.14,7-1.59-5.52,4.7-1.22.27.94-3.42.88.35,1.23,3.18-.83.27.93-3.18.83.44,1.5,3.54-.92.27.93Zm-4,.84-1.14-4.63-1.89.43-.24-1,5.08-1.15.23.94-1.89.43,1.15,4.63Zm-9.14-4,5.1-1.08,1.27,5.6-1.3.27-1.05-4.65-2.51.53,1,4.65-1.3.28Zm-2,3.86-1.2-2L130,85.62Zm2.73,1.89-1.42.21-.76-1.21-2.59.38L129.35,88l-1.39.21,1.72-6,1.38-.21ZM120.28,87l-1.08-2-.7,2.21Zm2.61,2-1.43.15-.68-1.25-2.61.27-.43,1.35-1.4.14,2.07-6,1.39-.15Zm-9.43.89-.3-4.76-1.94.17-.06-1,5.19-.45.06,1-1.93.17.3,4.76Zm-4.15-2-1-2.08-.83,2.18Zm2.48,2.14-1.43.08-.6-1.27-2.62.14-.51,1.34-1.4.08,2.42-5.89,1.4-.08ZM96.83,85l1.32,0-.08,4.79,1.89,0L100,84.9l1.32,0-.09,4.79,2,0,.08-4.79,1.31,0-.08,5.76-7.81.19Zm-3.12,3.45L93,86.27l-1,2.12ZM96,90.76l-1.43,0-.48-1.32-2.6-.06-.64,1.3-1.4,0,3-5.7,1.4,0ZM85.64,88l-.21,1.53,1.21.09a5.86,5.86,0,0,0,.9,0,.88.88,0,0,0,.51-.19A.75.75,0,0,0,88.3,89a.68.68,0,0,0-.08-.45.79.79,0,0,0-.37-.29,4.9,4.9,0,0,0-1.16-.16ZM86,85.75l-.18,1.32.85.06c.51,0,.83.05,1,.05a1.06,1.06,0,0,0,.56-.17.66.66,0,0,0,.25-.44.55.55,0,0,0-.11-.44.73.73,0,0,0-.46-.24L86.7,85.8Zm-1.19-1,2.6.18A8.66,8.66,0,0,1,88.5,85a1.75,1.75,0,0,1,.65.29,1.43,1.43,0,0,1,.43.51,1.21,1.21,0,0,1,.11.68,1.32,1.32,0,0,1-.35.73,1.63,1.63,0,0,1-.73.46,1.61,1.61,0,0,1,.84.58,1.25,1.25,0,0,1,.2.89,1.74,1.74,0,0,1-.31.75,1.88,1.88,0,0,1-.64.55,2.19,2.19,0,0,1-.92.21c-.22,0-.75,0-1.59-.07L84,90.44Z" transform="translate(0.58)"/><g class="cls-3"><rect class="cls-4" width="177.9" height="82.51"/></g><path class="cls-5" d="M160.21,7.37A4.19,4.19,0,1,1,156,11.56a4.19,4.19,0,0,1,4.18-4.19" transform="translate(0.58)"/></g></g></svg>