<svg width="360" height="115.2" viewBox="0 0 360 115.2" class="css-1j8o68f"><defs id="SvgjsDefs2931"></defs><g id="SvgjsG2932" featurekey="symbolFeature-0" transform="matrix(1.3430172328222345,0,0,1.3430172328222345,-17.142165571285297,-9.551538544462119)" fill="#e074c1" data-darkreader-inline-fill="" style="--darkreader-inline-fill:#7d1c61;"><path xmlns="http://www.w3.org/2000/svg" d="M86.907,70.553l-10.7-6.176c-6.791-11.871-2.746-27.046,9.038-33.965l0.152-0.088c0.004-0.001,0.007-0.004,0.012-0.006  l0.001-0.001l1.496-0.864c0.313-0.179,0.419-0.579,0.239-0.892c-0.047-0.079-0.104-0.145-0.174-0.196  c-0.203-0.155-0.487-0.181-0.723-0.045l-1.497,0.864l0,0c-0.003,0.003-0.005,0.004-0.008,0.005l-0.151,0.088  c-11.886,6.747-27.052,2.662-33.937-9.158L50.654,7.765c0-0.361-0.291-0.653-0.652-0.653c-0.181,0-0.344,0.073-0.461,0.193  c-0.121,0.118-0.196,0.282-0.196,0.464l-0.001,12.354c-3.342,5.738-8.711,9.845-15.129,11.565  c-6.348,1.701-12.969,0.864-18.688-2.344l-0.271-0.155c-0.003-0.001-0.005-0.004-0.008-0.005c-0.001,0-0.001,0-0.001,0l-1.497-0.864  c-0.313-0.181-0.712-0.074-0.892,0.238c-0.002,0.002-0.002,0.003-0.002,0.005c-0.001,0.001-0.002,0.001-0.002,0.002  c-0.182,0.313-0.074,0.711,0.238,0.893l1.784,1.03c11.688,6.953,15.683,22.061,8.915,33.889l-10.701,6.176  c-0.312,0.182-0.419,0.582-0.238,0.895c0,0,0.001,0,0.002,0.002l0,0c0,0,0.002,0,0.002,0.002c0.025,0.045,0.057,0.084,0.092,0.119  c0.014,0.014,0.028,0.029,0.043,0.041c0.023,0.02,0.047,0.037,0.072,0.055c0.02,0.012,0.038,0.025,0.059,0.035  c0.023,0.012,0.047,0.021,0.072,0.029c0.044,0.018,0.089,0.027,0.137,0.035c0.018,0,0.034,0.004,0.052,0.006  c0.013,0,0.025,0.004,0.038,0.004c0.019,0,0.038-0.006,0.057-0.006c0.015-0.004,0.029-0.004,0.043-0.006  c0.034-0.006,0.067-0.012,0.102-0.023c0.004-0.002,0.009-0.004,0.014-0.006c0.037-0.012,0.075-0.025,0.111-0.047l10.699-6.178  c13.738,0.055,24.9,11.244,24.9,24.996v1.729c0,0.361,0.292,0.654,0.652,0.654c0.361,0,0.653-0.293,0.653-0.654v-1.729  c0-13.752,11.161-24.941,24.9-24.996l10.699,6.178c0.037,0.021,0.075,0.035,0.114,0.049c0.004,0,0.007,0.002,0.009,0.004  c0.035,0.012,0.07,0.018,0.105,0.023c0.013,0.002,0.025,0.002,0.038,0.006c0.019,0,0.039,0.006,0.06,0.006  c0.014,0,0.026-0.004,0.039-0.004c0.015-0.002,0.028-0.006,0.043-0.006c0.053-0.008,0.102-0.02,0.15-0.039  c0.023-0.008,0.044-0.014,0.065-0.025c0.021-0.01,0.041-0.025,0.061-0.037c0.024-0.016,0.046-0.033,0.068-0.051  c0.017-0.014,0.031-0.029,0.045-0.043c0.033-0.035,0.063-0.072,0.089-0.113c0.002-0.004,0.005-0.006,0.005-0.008  c0.001,0,0.001,0,0.001-0.002h0.001C87.328,71.135,87.22,70.734,86.907,70.553z M74.112,63.168l-3.899-2.252l-4.271-2.465  c-1.908-3.391-2.407-7.32-1.398-11.086c1.007-3.76,3.398-6.909,6.74-8.892l0.158-0.093c0.002,0,0.003,0,0.003,0l0,0l6.872-3.969  C71.411,42.13,69.539,53.473,74.112,63.168z M63.931,57.289l-12.617-7.287l14.606-8.433c-1.201,1.614-2.102,3.455-2.638,5.458  C62.359,50.473,62.598,54.045,63.931,57.289z M50.659,48.866l-0.001-14.568c3.11,4.021,7.879,6.236,12.759,6.236  c0.623,0,1.248-0.04,1.871-0.113L50.659,48.866z M49.342,48.866l-14.621-8.441c0.62,0.073,1.242,0.113,1.863,0.113  c4.879,0,9.647-2.216,12.758-6.235V48.866z M48.684,50.006l-12.617,7.285c2.171-5.299,1.31-11.277-1.998-15.724L48.684,50.006z   M49.348,51.135v16.898c-2.194-5.098-6.945-8.84-12.627-9.609L49.348,51.135z M50.653,51.135l12.627,7.289  c-5.683,0.77-10.434,4.512-12.627,9.609V51.135z M72.3,33.837c1.786,0,3.58-0.185,5.355-0.555l-7.031,4.058  c-3.385,1.899-7.308,2.394-11.064,1.388c-3.766-1.009-6.919-3.406-8.901-6.755l-0.002-9.426  C55.694,29.808,63.895,33.837,72.3,33.837z M27.701,33.857c2.285,0,4.586-0.301,6.852-0.908c6.074-1.628,11.251-5.29,14.791-10.403  l-0.002,9.43c-4.066,6.866-12.877,9.262-19.855,5.428l-7.098-4.099C24.135,33.671,25.913,33.857,27.701,33.857z M21.69,34.42  l7.155,4.131c3.272,1.987,5.616,5.104,6.611,8.814c1.009,3.766,0.51,7.695-1.398,11.086l-4.061,2.344l-4.109,2.373  C30.461,53.477,28.59,42.139,21.69,34.42z M26.542,64.299l4.608-2.662l3.562-2.055c8.085,0.092,14.636,6.693,14.636,14.799v7.953  C46.119,72.486,37.229,65.188,26.542,64.299z M50.653,82.334v-7.953c0-8.105,6.55-14.707,14.635-14.799l3.772,2.18l4.396,2.537  C62.771,65.188,53.88,72.486,50.653,82.334z"></path></g><g id="SvgjsG2933" featurekey="nameFeature-0" transform="matrix(1.021020295847548,0,0,1.021020295847548,120,20.482894256643988)" fill="#cc90ff" data-darkreader-inline-fill="" style="--darkreader-inline-fill:#400076;"><path d="M5.36 39.92 c-2.96 0 -5.36 -2.4 -5.36 -5.36 l0 -17.76 c0 -2.96 2.4 -5.36 5.36 -5.36 s5.36 2.4 5.36 5.36 l0 1.6 l-3.8 0 l0 -1.6 c0 -0.84 -0.72 -1.56 -1.56 -1.56 s-1.56 0.72 -1.56 1.56 l0 17.76 c0 0.84 0.72 1.56 1.56 1.56 s1.56 -0.72 1.56 -1.56 l0 -2.56 l3.8 0 l0 2.56 c0 2.96 -2.4 5.36 -5.36 5.36 z M16.987000000000002 36.24 l5.52 0 l0 3.76 l-9.28 0 l0 -28.72 l3.76 0 l0 24.96 z M34.334 24.92 l-5.52 0 l0 11.28 l5.56 0 l0 3.8 l-9.36 0 l0 -28.56 l9.36 0 l0 3.8 l-5.56 0 l0 5.88 l5.52 0 l0 3.8 z M46.601 40 l-1.44 -9.88 l-4.04 0 l-1.32 9.88 l-3.84 0 l4.32 -28.6 l5.16 0 l5 28.6 l-3.84 0 z M41.641 26.32 l2.96 0 l-1.52 -10.4 z M62.228 33.44 l0.16 -22.16 l3.84 0 l-0.24 28.88 l-5.96 0 l-3.24 -22.36 l0 22.36 l-3.84 0 l0 -28.88 l6.2 0 z M87.882 40 l-1.44 -9.88 l-4.04 0 l-1.32 9.88 l-3.84 0 l4.32 -28.6 l5.16 0 l5 28.6 l-3.84 0 z M82.922 26.32 l2.96 0 l-1.52 -10.4 z M104.62900000000002 40.08 l-4.08 0 l-2.2 -6.04 l-0.88 0 l0 6.04 l-3.8 0 l0 -28.64 l5.96 0 c2.64 0 4.76 2.12 4.76 4.76 l0 13.08 c0 1.72 -0.88 3.2 -2.24 4.04 z M97.46900000000001 15.239999999999998 l0 15 l2.16 0 c0.52 0 0.96 -0.44 0.96 -0.96 l0 -13.08 c0 -0.52 -0.44 -0.96 -0.96 -0.96 l-2.16 0 z M112.49600000000001 39.92 c-2.96 0 -5.36 -2.4 -5.36 -5.36 l0 -17.76 c0 -2.96 2.4 -5.36 5.36 -5.36 s5.36 2.4 5.36 5.36 l0 1.6 l-3.8 0 l0 -1.6 c0 -0.84 -0.72 -1.56 -1.56 -1.56 s-1.56 0.72 -1.56 1.56 l0 17.76 c0 0.84 0.72 1.56 1.56 1.56 s1.56 -0.72 1.56 -1.56 l0 -2.56 l3.8 0 l0 2.56 c0 2.96 -2.4 5.36 -5.36 5.36 z M127.56300000000002 11.440000000000001 l3.8 0 l0 28.52 l-3.8 0 l0 -15.08 l-3.4 0 l0 15.08 l-3.8 0 l0 -28.52 l3.8 0 l0 9.68 l3.4 0 l0 -9.68 z M137.67000000000002 11.36 l0 28.48 l-3.8 0 l0 -28.48 l3.8 0 z M154.017 11.36 l0 3.84 l-4.76 0 l0 24.84 l-3.84 0 l0 -24.84 l-5.24 0 l0 -3.84 l13.84 0 z M165.844 24.92 l-5.52 0 l0 11.28 l5.56 0 l0 3.8 l-9.36 0 l0 -28.56 l9.36 0 l0 3.8 l-5.56 0 l0 5.88 l5.52 0 l0 3.8 z M173.751 39.92 c-2.96 0 -5.36 -2.4 -5.36 -5.36 l0 -17.76 c0 -2.96 2.4 -5.36 5.36 -5.36 s5.36 2.4 5.36 5.36 l0 1.6 l-3.8 0 l0 -1.6 c0 -0.84 -0.72 -1.56 -1.56 -1.56 s-1.56 0.72 -1.56 1.56 l0 17.76 c0 0.84 0.72 1.56 1.56 1.56 s1.56 -0.72 1.56 -1.56 l0 -2.56 l3.8 0 l0 2.56 c0 2.96 -2.4 5.36 -5.36 5.36 z M195.458 11.36 l0 3.84 l-4.76 0 l0 24.84 l-3.84 0 l0 -24.84 l-5.24 0 l0 -3.84 l13.84 0 z M203.845 40.08 c-3.24 0 -5.88 -2.64 -5.88 -5.88 l0 -22.72 l3.8 0 l0 22.72 c0 1.16 0.92 2.12 2.08 2.12 s2.08 -0.96 2.08 -2.12 l0 -22.72 l3.8 0 l0 22.72 c0 3.24 -2.64 5.88 -5.88 5.88 z M223.192 40.08 l-4.08 0 l-2.2 -6.04 l-0.88 0 l0 6.04 l-3.8 0 l0 -28.64 l5.96 0 c2.64 0 4.76 2.12 4.76 4.76 l0 13.08 c0 1.72 -0.88 3.2 -2.24 4.04 z M216.032 15.239999999999998 l0 15 l2.16 0 c0.52 0 0.96 -0.44 0.96 -0.96 l0 -13.08 c0 -0.52 -0.44 -0.96 -0.96 -0.96 l-2.16 0 z M235.019 24.92 l-5.52 0 l0 11.28 l5.56 0 l0 3.8 l-9.36 0 l0 -28.56 l9.36 0 l0 3.8 l-5.56 0 l0 5.88 l5.52 0 l0 3.8 z"></path></g><g id="SvgjsG2934" featurekey="sloganFeature-0" transform="matrix(0.8492930171710256,0,0,0.8492930171710256,120,66.43080266047707)" fill="#55c2de" data-darkreader-inline-fill="" style="--darkreader-inline-fill:#1c7991;"><path d="M2.74 20.12 c-1.52 0 -2.74 -1.24 -2.74 -2.74 l0 -2.18 l1.94 0 l0 2.18 c0 0.44 0.36 0.8 0.8 0.8 s0.78 -0.36 0.78 -0.8 l0 -1.9 l-3.52 -4.86 l0 -2.48 c0 -1.52 1.22 -2.76 2.74 -2.76 c1.5 0 2.72 1.24 2.72 2.76 l0 2.16 l-1.94 0 l0 -2.16 c0 -0.46 -0.34 -0.8 -0.78 -0.8 s-0.8 0.34 -0.8 0.8 l0 1.82 l3.52 4.86 l0 2.56 c0 1.5 -1.22 2.74 -2.72 2.74 z M20.060499999999998 20.02 c-1.5 0 -2.7 -1.22 -2.7 -2.7 l0 -8.98 c0 -1.48 1.2 -2.68 2.7 -2.68 c1.48 0 2.68 1.2 2.68 2.68 l0 8.98 c0 1.48 -1.2 2.7 -2.68 2.7 z M20.060499999999998 7.5600000000000005 c-0.44 0 -0.78 0.36 -0.78 0.78 l0 8.98 c0 0.44 0.34 0.78 0.78 0.78 c0.42 0 0.78 -0.34 0.78 -0.78 l0 -8.98 c0 -0.42 -0.36 -0.78 -0.78 -0.78 z M36.521 18.12 l2.76 0 l0 1.88 l-4.64 0 l0 -14.36 l1.88 0 l0 12.48 z M54.1215 20.04 c-1.62 0 -2.94 -1.32 -2.94 -2.94 l0 -11.36 l1.9 0 l0 11.36 c0 0.58 0.46 1.06 1.04 1.06 s1.04 -0.48 1.04 -1.06 l0 -11.36 l1.9 0 l0 11.36 c0 1.62 -1.32 2.94 -2.94 2.94 z M75.882 5.68 l0 1.92 l-2.38 0 l0 12.42 l-1.92 0 l0 -12.42 l-2.62 0 l0 -1.92 l6.92 0 z M89.44250000000001 5.68 l0 14.24 l-1.9 0 l0 -14.24 l1.9 0 z M104.043 20.02 c-1.5 0 -2.7 -1.22 -2.7 -2.7 l0 -8.98 c0 -1.48 1.2 -2.68 2.7 -2.68 c1.48 0 2.68 1.2 2.68 2.68 l0 8.98 c0 1.48 -1.2 2.7 -2.68 2.7 z M104.043 7.5600000000000005 c-0.44 0 -0.78 0.36 -0.78 0.78 l0 8.98 c0 0.44 0.34 0.78 0.78 0.78 c0.42 0 0.78 -0.34 0.78 -0.78 l0 -8.98 c0 -0.42 -0.36 -0.78 -0.78 -0.78 z M123.26350000000001 16.72 l0.08 -11.08 l1.92 0 l-0.12 14.44 l-2.98 0 l-1.62 -11.18 l0 11.18 l-1.92 0 l0 -14.44 l3.1 0 z M158.9845 5.68 l0 1.92 l-2.38 0 l0 12.42 l-1.92 0 l0 -12.42 l-2.62 0 l0 -1.92 l6.92 0 z M175.54500000000002 12.46 l-2.76 0 l0 5.64 l2.78 0 l0 1.9 l-4.68 0 l0 -14.28 l4.68 0 l0 1.9 l-2.78 0 l0 2.94 l2.76 0 l0 1.9 z M193.26550000000003 5.68 l3.34 0 l0 14.28 l-1.88 0 l0 -11.3 l-1.78 11.34 l-0.74 0 l-0.18 -0.04 l-0.16 0.04 l-0.74 0 l-1.76 -11.34 l0 11.3 l-1.9 0 l0 -14.28 l3.36 0 l1.22 8.08 z M210.40600000000003 17 l0 2.98 l-1.9 0 l0 -14.26 l2.96 0 c1.32 0 2.38 1.08 2.38 2.4 l0 6.5 c0 1.32 -1.06 2.38 -2.38 2.38 l-1.06 0 z M210.40600000000003 7.619999999999999 l0 7.48 l1.06 0 c0.28 0 0.48 -0.2 0.48 -0.48 l0 -6.5 c0 -0.28 -0.2 -0.5 -0.48 -0.5 l-1.06 0 z M227.62650000000002 18.12 l2.76 0 l0 1.88 l-4.64 0 l0 -14.36 l1.88 0 l0 12.48 z M247.28700000000003 20 l-0.72 -4.94 l-2.02 0 l-0.66 4.94 l-1.92 0 l2.16 -14.3 l2.58 0 l2.5 14.3 l-1.92 0 z M244.80700000000004 13.16 l1.48 0 l-0.76 -5.2 z M266.00750000000005 5.68 l0 1.92 l-2.38 0 l0 12.42 l-1.92 0 l0 -12.42 l-2.62 0 l0 -1.92 l6.92 0 z M282.56800000000004 12.46 l-2.76 0 l0 5.64 l2.78 0 l0 1.9 l-4.68 0 l0 -14.28 l4.68 0 l0 1.9 l-2.78 0 l0 2.94 l2.76 0 l0 1.9 z"></path></g></svg>